<svg width="26" height="28" viewBox="0 0 26 28" fill="none" xmlns="http://www.w3.org/2000/svg">
<path d="M1.45244 20.6664C0.888798 19.6917 0.450657 18.6497 0.148438 17.5651C0.806181 17.2306 1.35856 16.7206 1.74448 16.0916C2.13039 15.4626 2.33479 14.7392 2.33507 14.0012C2.33534 13.2633 2.13148 12.5397 1.74604 11.9104C1.3606 11.2812 0.808597 10.7708 0.151104 10.4358C0.753819 8.25641 1.90141 6.26637 3.48577 4.6531C4.10456 5.0554 4.8226 5.27865 5.56041 5.29814C6.29822 5.31763 7.02704 5.13261 7.66621 4.76354C8.30538 4.39447 8.82998 3.85576 9.18194 3.20702C9.5339 2.55827 9.69951 1.8248 9.66044 1.08776C11.8499 0.521927 14.1474 0.522845 16.3364 1.09043C16.2977 1.82745 16.4636 2.56082 16.8159 3.20937C17.1681 3.85793 17.6929 4.3964 18.3322 4.76518C18.9715 5.13396 19.7004 5.31868 20.4381 5.2989C21.1759 5.27912 21.8938 5.05561 22.5124 4.6531C23.2844 5.43976 23.9698 6.33443 24.5458 7.3331C25.1231 8.33176 25.5551 9.3731 25.8498 10.4344C25.192 10.769 24.6396 11.2789 24.2537 11.9079C23.8678 12.5369 23.6634 13.2604 23.6631 13.9983C23.6629 14.7362 23.8667 15.4598 24.2522 16.0891C24.6376 16.7184 25.1896 17.2287 25.8471 17.5638C25.2444 19.7431 24.0968 21.7332 22.5124 23.3464C21.8936 22.9441 21.1756 22.7209 20.4378 22.7014C19.7 22.6819 18.9712 22.8669 18.332 23.236C17.6928 23.6051 17.1682 24.1438 16.8163 24.7925C16.4643 25.4413 16.2987 26.1747 16.3378 26.9118C14.1483 27.4776 11.8508 27.4767 9.66177 26.9091C9.7005 26.1721 9.53457 25.4387 9.18233 24.7902C8.8301 24.1416 8.30529 23.6031 7.666 23.2344C7.0267 22.8656 6.29784 22.6808 5.56007 22.7006C4.8223 22.7204 4.10439 22.9439 3.48577 23.3464C2.69776 22.5424 2.01456 21.6419 1.45244 20.6664ZM8.9991 20.9278C10.4199 21.7473 11.4882 23.0625 11.9991 24.6211C12.6644 24.6838 13.3324 24.6851 13.9978 24.6224C14.509 23.0636 15.5778 21.7484 16.9991 20.9291C18.4194 20.1073 20.0931 19.8391 21.6991 20.1758C22.0858 19.6318 22.4191 19.0518 22.6964 18.4451C21.6023 17.223 20.9979 15.64 20.9991 13.9998C20.9991 12.3198 21.6258 10.7504 22.6964 9.55443C22.4171 8.94796 22.0824 8.36861 21.6964 7.82376C20.0915 8.16018 18.4188 7.8924 16.9991 7.07176C15.5783 6.25226 14.51 4.93707 13.9991 3.37843C13.3338 3.31576 12.6658 3.31443 12.0004 3.3771C11.4892 4.93596 10.4204 6.25118 8.9991 7.07043C7.57881 7.89218 5.90507 8.16046 4.2991 7.82376C3.91319 8.36814 3.57928 8.94758 3.30177 9.55443C4.39586 10.7765 5.00028 12.3595 4.9991 13.9998C4.9991 15.6798 4.37244 17.2491 3.30177 18.4451C3.58107 19.0516 3.91582 19.6309 4.30177 20.1758C5.90673 19.8394 7.57938 20.1071 8.9991 20.9278ZM12.9991 17.9998C11.9382 17.9998 10.9208 17.5783 10.1707 16.8282C9.42053 16.078 8.9991 15.0606 8.9991 13.9998C8.9991 12.9389 9.42053 11.9215 10.1707 11.1713C10.9208 10.4212 11.9382 9.99976 12.9991 9.99976C14.06 9.99976 15.0774 10.4212 15.8275 11.1713C16.5777 11.9215 16.9991 12.9389 16.9991 13.9998C16.9991 15.0606 16.5777 16.078 15.8275 16.8282C15.0774 17.5783 14.06 17.9998 12.9991 17.9998ZM12.9991 15.3331C13.3527 15.3331 13.6919 15.1926 13.9419 14.9426C14.192 14.6925 14.3324 14.3534 14.3324 13.9998C14.3324 13.6461 14.192 13.307 13.9419 13.057C13.6919 12.8069 13.3527 12.6664 12.9991 12.6664C12.6455 12.6664 12.3063 12.8069 12.0563 13.057C11.8062 13.307 11.6658 13.6461 11.6658 13.9998C11.6658 14.3534 11.8062 14.6925 12.0563 14.9426C12.3063 15.1926 12.6455 15.3331 12.9991 15.3331Z" fill="#707070"/>
</svg>
